<svg width="39" height="40" viewBox="0 0 39 40" fill="none" xmlns="http://www.w3.org/2000/svg">
<rect opacity="0.25" x="0.75" y="1.5332" width="37.5" height="37.5" rx="18.75" stroke="white" stroke-width="1.5"/>
<path fill-rule="evenodd" clip-rule="evenodd" d="M16 26.7832H13V17.7832H16V26.7832Z" fill="white"/>
<path fill-rule="evenodd" clip-rule="evenodd" d="M14.4911 15.7832H14.474C13.5788 15.7832 13 15.1162 13 14.2827C13 13.4315 13.5964 12.7832 14.5087 12.7832C15.4209 12.7832 15.9827 13.4315 16 14.2827C16 15.1162 15.4209 15.7832 14.4911 15.7832Z" fill="white"/>
<path fill-rule="evenodd" clip-rule="evenodd" d="M26.9999 26.783H24.0519V22.0786C24.0519 20.8969 23.6253 20.0906 22.5581 20.0906C21.7437 20.0906 21.2586 20.6342 21.0455 21.1592C20.9675 21.3473 20.9484 21.6095 20.9484 21.8723V26.7832H18C18 26.7832 18.0389 18.815 18 17.9899H20.9484V19.2354C21.3397 18.6367 22.0405 17.7832 23.6057 17.7832C25.5456 17.7832 27 19.0403 27 21.7412L26.9999 26.783Z" fill="white"/>
</svg>
