<svg width="203" height="56" viewBox="0 0 203 56" fill="none" xmlns="http://www.w3.org/2000/svg">
<path d="M61.1407 35.3576L68.2551 12.7574H73.8182L80.9325 35.3576H77.0277L70.5552 15.0843H71.4111L65.0456 35.3576H61.1407ZM65.1258 30.4631V26.9327H76.9742V30.4631H65.1258Z" fill="white"/>
<path d="M83.7141 35.3575V18.4275H87.0841V23.6696H87.5387V35.3575H83.7141ZM95.4822 35.3575V27.2001C95.4822 26.6652 95.4555 26.0768 95.3752 25.4349C95.295 24.793 95.1345 24.1511 94.8671 23.5627C94.5996 22.9743 94.1984 22.4661 93.6635 22.0916C93.1286 21.7172 92.4332 21.5032 91.5238 21.5032C91.0424 21.5032 90.561 21.5835 90.1063 21.7439C89.6249 21.9044 89.197 22.1719 88.8225 22.5463C88.4481 22.9208 88.1271 23.4557 87.9132 24.1243C87.6725 24.793 87.5655 25.6488 87.5655 26.6652L85.3188 25.7023C85.3188 24.258 85.5863 22.9475 86.148 21.7707C86.7096 20.5939 87.5387 19.6578 88.6086 18.9624C89.7051 18.267 91.0424 17.9193 92.6204 17.9193C93.8775 17.9193 94.9206 18.1333 95.7229 18.5345C96.5253 18.9624 97.1939 19.4973 97.6754 20.1392C98.1568 20.7811 98.5045 21.4765 98.7452 22.1986C98.9859 22.9208 99.1196 23.6161 99.1999 24.2848C99.2801 24.9267 99.3068 25.4616 99.3068 25.8895V35.3575H95.4822Z" fill="white"/>
<path d="M108.106 35.839C106.876 35.839 105.86 35.5983 105.004 35.1436C104.148 34.689 103.506 34.0471 103.078 33.2714C102.65 32.4958 102.436 31.64 102.436 30.7039C102.436 29.9015 102.57 29.1526 102.837 28.5107C103.105 27.8688 103.533 27.2804 104.094 26.8257C104.656 26.3443 105.378 25.9699 106.287 25.6489C106.956 25.4349 107.758 25.221 108.668 25.0605C109.577 24.8733 110.567 24.7128 111.637 24.5791C112.706 24.4186 113.83 24.2581 115.007 24.0977L113.669 24.8733C113.669 23.6965 113.429 22.8406 112.894 22.2789C112.359 21.7173 111.449 21.4498 110.192 21.4498C109.417 21.4498 108.695 21.6371 107.972 21.9847C107.25 22.3324 106.769 22.9476 106.475 23.8302L103.025 22.7604C103.452 21.3161 104.228 20.166 105.405 19.3102C106.582 18.4543 108.16 17.9996 110.166 17.9996C111.663 17.9996 113.001 18.2403 114.151 18.7485C115.301 19.2299 116.157 20.0323 116.692 21.1556C116.986 21.744 117.173 22.3592 117.253 22.9743C117.307 23.5895 117.36 24.2849 117.36 25.007V35.3576H114.044V31.6934L114.605 32.2818C113.83 33.5122 112.947 34.3948 111.931 34.9832C110.914 35.5448 109.631 35.839 108.106 35.839ZM108.855 32.8168C109.711 32.8168 110.433 32.6563 111.048 32.3621C111.663 32.0679 112.145 31.6934 112.492 31.2388C112.84 30.8108 113.108 30.3829 113.215 30.0085C113.402 29.527 113.536 28.9654 113.562 28.3502C113.589 27.7351 113.589 27.2269 113.589 26.8257L114.739 27.1734C113.589 27.3606 112.626 27.5211 111.797 27.6548C110.968 27.7886 110.273 27.9223 109.684 28.0293C109.096 28.163 108.588 28.27 108.133 28.4305C107.705 28.5909 107.331 28.7782 107.01 28.9921C106.715 29.2061 106.475 29.4468 106.314 29.7143C106.154 29.9817 106.074 30.3027 106.074 30.6771C106.074 31.105 106.18 31.4527 106.394 31.7737C106.608 32.0946 106.903 32.3353 107.304 32.5226C107.785 32.7365 108.267 32.8168 108.855 32.8168Z" fill="white"/>
<path d="M121.773 35.3575V12.3027H125.544V35.3575H121.773Z" fill="white"/>
<path d="M132.472 42.8998L135.735 33.94L135.788 36.5878L128.406 18.4275H132.338L137.58 31.8538H136.564L141.672 18.4275H145.443L136.002 42.8998H132.472Z" fill="white"/>
<path d="M147.182 21.3962V18.4275H159.003V21.3962H147.182ZM158.977 35.3575C157.853 35.5715 156.757 35.6517 155.687 35.625C154.617 35.5982 153.654 35.411 152.798 35.0366C151.942 34.6621 151.301 34.0737 150.873 33.2713C150.498 32.5492 150.284 31.8003 150.257 31.0247C150.231 30.2491 150.231 29.3932 150.231 28.4304V13.7202H154.002V28.2431C154.002 28.9118 154.002 29.5269 154.029 30.0351C154.055 30.5433 154.162 30.9712 154.35 31.2922C154.724 31.9073 155.339 32.2817 156.142 32.3352C156.971 32.4155 157.907 32.362 158.977 32.2015V35.3575Z" fill="white"/>
<path d="M162.962 15.8599V12.3829H166.733V15.8599H162.962ZM162.962 35.3575V18.4275H166.733V35.3575H162.962Z" fill="white"/>
<path d="M178.795 35.8389C177.057 35.8389 175.559 35.4377 174.329 34.6621C173.098 33.8865 172.162 32.8167 171.494 31.4794C170.852 30.1421 170.504 28.5908 170.504 26.9058C170.504 25.1674 170.852 23.6429 171.52 22.2788C172.189 20.9416 173.152 19.8717 174.409 19.1228C175.666 18.3472 177.137 17.9728 178.849 17.9728C180.774 17.9728 182.406 18.4542 183.743 19.417C185.08 20.3799 185.936 21.7172 186.364 23.3754L182.593 24.3918C182.299 23.4824 181.817 22.7603 181.122 22.2788C180.453 21.7707 179.678 21.53 178.795 21.53C177.806 21.53 177.003 21.7707 176.361 22.2253C175.719 22.68 175.265 23.3219 174.944 24.151C174.65 24.9802 174.489 25.8895 174.489 26.9326C174.489 28.5373 174.837 29.8479 175.559 30.8375C176.281 31.8271 177.351 32.3352 178.768 32.3352C179.785 32.3352 180.56 32.0945 181.149 31.6398C181.737 31.1852 182.165 30.5165 182.459 29.6607L186.311 30.5165C185.776 32.255 184.866 33.5655 183.556 34.5016C182.299 35.3842 180.694 35.8389 178.795 35.8389Z" fill="white"/>
<path d="M196.046 35.8389C193.96 35.8389 192.248 35.3575 190.938 34.4214C189.627 33.4853 188.825 32.148 188.557 30.463L192.409 29.8746C192.596 30.7037 193.051 31.3724 193.719 31.8538C194.388 32.3352 195.244 32.5759 196.287 32.5759C197.196 32.5759 197.892 32.3887 198.4 32.041C198.908 31.6933 199.149 31.1852 199.149 30.57C199.149 30.1956 199.068 29.8746 198.881 29.6339C198.694 29.3932 198.293 29.1792 197.678 28.9385C197.062 28.7246 196.126 28.4304 194.843 28.1094C193.425 27.735 192.302 27.3338 191.446 26.9058C190.617 26.4779 190.002 25.9697 189.654 25.3546C189.279 24.7662 189.092 24.0441 189.092 23.1882C189.092 22.1451 189.36 21.209 189.921 20.4334C190.483 19.6578 191.259 19.0426 192.248 18.6147C193.238 18.1867 194.415 17.9728 195.752 17.9728C197.062 17.9728 198.239 18.1867 199.256 18.5879C200.272 18.9891 201.101 19.5775 201.716 20.3264C202.331 21.0753 202.733 21.9579 202.866 22.9742L199.015 23.6696C198.908 22.9475 198.587 22.3858 198.025 21.9579C197.464 21.53 196.715 21.316 195.779 21.2625C194.896 21.209 194.174 21.3427 193.639 21.6637C193.104 21.9846 192.837 22.4393 192.837 23.001C192.837 23.3219 192.944 23.5894 193.158 23.8301C193.372 24.0708 193.826 24.2848 194.495 24.5255C195.164 24.7662 196.153 25.0336 197.464 25.3813C198.801 25.729 199.898 26.1302 200.7 26.5582C201.502 27.0128 202.091 27.521 202.465 28.1629C202.84 28.8048 203 29.5269 203 30.4095C203 32.1213 202.385 33.4585 201.128 34.4214C199.951 35.3575 198.239 35.8389 196.046 35.8389Z" fill="white"/>
<path d="M33.3787 46.8047H8.7191C3.90487 46.8047 0 42.8998 0 38.0856V13.4527C0 8.63852 3.90487 4.73364 8.7191 4.73364H33.3787C38.1929 4.73364 42.0978 8.63852 42.0978 13.4527V38.1123C42.0978 42.8998 38.1929 46.8047 33.3787 46.8047Z" fill="#8748FF"/>
<path d="M26.6387 20.8345C26.2108 20.5135 25.7294 20.3798 25.2212 20.3798C24.3653 20.3798 23.4827 20.674 22.5734 21.3961C21.664 22.1183 20.7012 23.7498 20.193 24.6324C20.193 24.6324 20.7814 22.7602 20.7814 22.1718C20.7814 21.5031 20.6744 21.1822 20.3 20.8345C19.9256 20.4868 19.4709 20.2996 18.722 20.2728C18.2406 20.2728 17.7057 20.3798 17.4382 20.5135C17.144 20.674 16.6358 21.0752 16.7428 21.7438C16.823 22.3322 17.2777 22.252 17.2777 22.9741C17.2777 23.1346 17.1975 23.4556 17.0905 23.7498C17.0905 23.7498 15.7532 26.986 15.0578 29.0187C14.8706 29.6071 14.6834 30.1153 14.8706 30.5699C15.2183 31.4525 17.5452 31.5595 18.1871 30.0885C19.0162 28.1628 19.5511 26.1569 20.3 25.0336C21.0489 23.937 22.0117 22.8137 22.6804 22.6265C23.1083 22.5195 23.5362 22.6799 23.456 23.3218C23.349 24.3114 21.2628 27.9488 21.4768 29.6338C21.6373 30.8909 22.7339 31.1583 23.349 31.1583C24.3386 31.1583 24.82 30.9711 25.7026 30.3025C26.719 29.5536 25.4352 30.3025 25.1142 30.142C24.7933 29.9815 24.8735 29.3931 25.3014 28.35C25.3817 28.1896 27.2004 23.8568 27.2806 22.359C27.3341 21.6636 27.0667 21.1287 26.6387 20.8345Z" fill="#00FF00"/>
<path d="M31.5867 2.2195V7.86285C31.5867 8.61173 30.9716 9.22688 30.2227 9.22688C29.4738 9.22688 28.8586 8.61173 28.8586 7.86285V2.2195C28.8586 1.47062 29.4738 0.855469 30.2227 0.855469C30.9716 0.855469 31.5867 1.47062 31.5867 2.2195Z" fill="#8748FF"/>
<path d="M13.2391 2.2195V7.86285C13.2391 8.61173 12.624 9.22688 11.8751 9.22688C11.1262 9.22688 10.5111 8.61173 10.5111 7.86285V2.2195C10.5111 1.47062 11.1262 0.855469 11.8751 0.855469C12.624 0.855469 13.2391 1.47062 13.2391 2.2195Z" fill="#8748FF"/>
<path d="M52.3681 15.0574V36.454C52.3681 37.5238 51.1378 38.1122 50.3087 37.4704L44.7456 32.8968L36.2672 25.6487L44.7456 18.6414L50.282 14.0946C51.1378 13.3992 52.3681 13.9876 52.3681 15.0574Z" fill="#8748FF"/>
<path d="M10.832 11.0188H4.84097V17.0098H10.832V11.0188Z" fill="white"/>
<path d="M24.1514 11.0188H18.1603V17.0098H24.1514V11.0188Z" fill="white"/>
<path d="M37.4707 11.0188H31.4797V17.0098H37.4707V11.0188Z" fill="white"/>
<path d="M10.832 22.1985H4.84097V28.1895H10.832V22.1985Z" fill="white"/>
<path d="M37.4707 22.1985H31.4797V28.1895H37.4707V22.1985Z" fill="white"/>
<path d="M10.832 33.3514H4.84097V39.3425H10.832V33.3514Z" fill="white"/>
<path d="M24.1514 33.3514H18.1603V39.3425H24.1514V33.3514Z" fill="white"/>
<path d="M36.9893 55.711C43.0012 55.711 47.8748 50.8373 47.8748 44.8254C47.8748 38.8135 43.0012 33.9399 36.9893 33.9399C30.9774 33.9399 26.1038 38.8135 26.1038 44.8254C26.1038 50.8373 30.9774 55.711 36.9893 55.711Z" fill="#8748FF"/>
<path d="M28.5912 40.5996C28.6447 40.5193 28.6714 40.4391 28.7249 40.3588C28.8586 40.1181 28.9924 39.8774 29.1528 39.6367C29.2063 39.5565 29.2598 39.4495 29.3401 39.3693C29.447 39.2355 29.5273 39.1018 29.6343 38.9681C29.661 38.9413 29.6878 38.8878 29.7145 38.8611C29.9552 38.5669 30.2227 38.2727 30.5169 38.0052C30.5704 37.9517 30.6239 37.8982 30.6774 37.8448C30.7308 37.7913 30.8111 37.7378 30.8646 37.6843C30.9181 37.6575 30.9448 37.604 30.9983 37.5773C31.1053 37.4971 31.1855 37.4168 31.2925 37.3366C31.3192 37.3098 31.3727 37.2831 31.3995 37.2563C31.3995 37.2563 31.4262 37.2563 31.4262 37.2296C31.4262 37.2296 31.453 37.2296 31.453 37.2029C31.4797 37.1761 31.5332 37.1494 31.56 37.1226C31.6402 37.0691 31.7204 37.0156 31.8007 36.9621C32.2286 36.6679 32.6833 36.4272 33.1647 36.2133C33.2182 36.1865 33.2717 36.1598 33.3252 36.133C33.6194 35.9993 33.9136 35.8923 34.2345 35.8121C34.3415 35.7853 34.4485 35.7586 34.5555 35.7318C34.9299 35.6249 35.3044 35.5446 35.7055 35.4911C35.7858 35.4911 35.8393 35.4644 35.9195 35.4644C35.973 35.4644 36.0265 35.4644 36.1067 35.4376C36.1602 35.4376 36.2137 35.4376 36.2405 35.4376C36.2672 35.4376 36.3207 35.4376 36.3474 35.4376C36.3742 35.4376 36.4009 35.4376 36.4009 35.4376C36.5882 35.4376 36.8021 35.4109 36.9893 35.4109C37.0161 35.4109 37.0428 35.4109 37.0696 35.4109C37.0696 35.4109 37.0696 35.4109 37.0963 35.4109H37.1231C42.2315 35.4911 46.3503 39.6367 46.3771 44.7451V44.7719C46.3771 49.9606 42.178 54.1596 36.9893 54.1596C36.7754 54.1596 36.5882 54.1596 36.4009 54.1329C36.3742 54.1329 36.3474 54.1329 36.3474 54.1329C36.3207 54.1329 36.2672 54.1329 36.2405 54.1329C36.187 54.1329 36.1335 54.1329 36.1067 54.1329C36.0532 54.1329 35.9998 54.1329 35.9195 54.1061C35.8393 54.1061 35.7858 54.0794 35.7055 54.0794C35.3044 54.0259 34.9299 53.9457 34.5555 53.8387C34.4485 53.8119 34.3415 53.7852 34.2345 53.7585C33.9403 53.6515 33.6194 53.5445 33.3252 53.4375C33.2717 53.4108 33.2182 53.384 33.1647 53.3573C32.6833 53.1433 32.2286 52.9026 31.8007 52.6084C31.7204 52.5549 31.6402 52.5014 31.56 52.4479C31.4797 52.3944 31.3727 52.3142 31.2925 52.2607C31.1855 52.1805 31.1053 52.1002 30.9983 52.02C30.9448 51.9932 30.9181 51.9397 30.8646 51.913C30.8111 51.8595 30.7308 51.806 30.6774 51.7525C30.6239 51.699 30.5704 51.6455 30.5169 51.592C30.2227 51.3246 29.982 51.0304 29.7145 50.7362C29.6878 50.7094 29.661 50.656 29.6343 50.6292C29.5273 50.4955 29.447 50.3617 29.3401 50.228C29.2866 50.1478 29.2063 50.0675 29.1528 49.9606C28.9924 49.7199 28.8586 49.4791 28.7249 49.2384C28.6714 49.1582 28.6447 49.078 28.5912 48.9977C27.9493 47.7407 27.6016 46.2964 27.6016 44.7986C27.6016 43.3009 27.976 41.8834 28.5912 40.5996ZM36.294 52.7956V51.913C36.294 51.8595 36.294 51.806 36.3207 51.7793C36.3207 51.7525 36.3207 51.7525 36.3207 51.7258C36.3207 51.699 36.3474 51.6723 36.3474 51.6723C36.3474 51.6455 36.3742 51.6188 36.3742 51.6188C36.4009 51.5921 36.4277 51.5386 36.4544 51.5118C36.4812 51.4851 36.4812 51.4851 36.5079 51.4583C36.5614 51.4048 36.6149 51.3781 36.6684 51.3513C36.6684 51.3513 36.6951 51.3513 36.6951 51.3246C36.6951 51.3246 36.7219 51.3246 36.7219 51.2978C36.7486 51.2978 36.7754 51.2711 36.8289 51.2711H36.8556C36.8824 51.2711 36.8824 51.2711 36.9091 51.2711C36.9358 51.2711 36.9358 51.2711 36.9626 51.2711H36.9893C37.3638 51.2711 37.6847 51.5921 37.6847 51.9665V52.8491C41.5629 52.5281 44.6654 49.3989 44.9596 45.5208H44.2107C43.8362 45.5208 43.5153 45.1998 43.5153 44.8254C43.5153 44.4509 43.8362 44.13 44.2107 44.13H44.9596C44.6119 40.3054 41.5896 37.2563 37.765 36.8819V37.604C37.765 37.9785 37.444 38.2994 37.0696 38.2994C37.0428 38.2994 37.0161 38.2994 36.9626 38.2994C36.8556 38.2727 36.7754 38.2459 36.6951 38.1924L36.6684 38.1657L36.6416 38.139C36.6149 38.139 36.6149 38.1122 36.5882 38.0855L36.5614 38.0587C36.5614 38.0587 36.5614 38.032 36.5347 38.032C36.5347 38.032 36.5347 38.0052 36.5079 38.0052C36.5079 38.0052 36.5079 37.9785 36.4812 37.9785C36.4544 37.9517 36.4544 37.925 36.4277 37.8982C36.4277 37.8982 36.4277 37.8715 36.4009 37.8715V37.8448V37.818C36.4009 37.7913 36.4009 37.7645 36.3742 37.7645V37.7378V37.711V37.6843V37.6575V36.9354C32.4961 37.2296 29.3936 40.2519 29.0191 44.1032H29.8482C30.2227 44.1032 30.5436 44.4242 30.5436 44.7986C30.5436 45.1731 30.2227 45.494 29.8482 45.494H28.9924C29.2866 49.2919 32.3891 52.4479 36.294 52.7956Z" fill="white"/>
<path d="M34.0206 44.6382C34.0206 44.665 34.0473 44.6917 34.0473 44.7184C34.074 44.7719 34.074 44.7987 34.1008 44.8522C34.1275 44.9057 34.1543 44.9592 34.2078 44.9859L36.5079 47.286C36.5347 47.3128 36.5347 47.3128 36.5614 47.3395C36.5881 47.3663 36.6149 47.393 36.6416 47.393C36.6416 47.393 36.6684 47.393 36.6684 47.4198C36.6951 47.4198 36.6951 47.4465 36.7219 47.4465H36.7486H36.7754C36.8021 47.4465 36.8289 47.4465 36.8289 47.4733H36.8556C36.8823 47.4733 36.9091 47.4733 36.9091 47.4733H36.9358C37.1231 47.4733 37.2835 47.393 37.4173 47.2593L41.4291 43.2474C41.6966 42.98 41.6966 42.552 41.4291 42.2578C41.1617 41.9904 40.7337 41.9904 40.4395 42.2578L36.9091 45.7883L35.0904 43.9696C34.8229 43.7021 34.395 43.7021 34.1008 43.9696C34.0473 44.0231 34.0206 44.0498 33.9938 44.1033C33.9671 44.1568 33.9403 44.1835 33.9403 44.237C33.9403 44.2638 33.9136 44.2905 33.9136 44.3173C33.9938 44.4777 33.9938 44.558 34.0206 44.6382Z" fill="white"/>
</svg>
