<svg width="39" height="40" viewBox="0 0 39 40" fill="none" xmlns="http://www.w3.org/2000/svg">
<rect opacity="0.25" x="0.75" y="1.5332" width="37.5" height="37.5" rx="18.75" stroke="white" stroke-width="1.5"/>
<path fill-rule="evenodd" clip-rule="evenodd" d="M19.3122 17.7094L19.3404 18.1852L18.8708 18.1269C17.1612 17.9036 15.6677 17.1462 14.3996 15.8742L13.7796 15.2431L13.62 15.7092C13.2818 16.7481 13.4978 17.8453 14.2023 18.5833C14.5781 18.9911 14.4935 19.0493 13.8454 18.8066C13.62 18.7289 13.4227 18.6706 13.4039 18.6998C13.3382 18.7677 13.5636 19.6513 13.7421 20.0009C13.9863 20.4864 14.4841 20.9622 15.0289 21.2437L15.4892 21.4671L14.9444 21.4768C14.4184 21.4768 14.3996 21.4865 14.4559 21.6904C14.6438 22.3215 15.3859 22.9915 16.2125 23.2828L16.7949 23.4867L16.2876 23.7974C15.5362 24.2441 14.6532 24.4965 13.7702 24.516C13.3475 24.5257 13 24.5645 13 24.5936C13 24.6907 14.146 25.2345 14.8129 25.4481C16.8136 26.0792 19.1901 25.8074 20.9748 24.7296C22.2429 23.9625 23.511 22.4381 24.1028 20.9622C24.4222 20.1757 24.7415 18.7386 24.7415 18.0492C24.7415 17.6026 24.7697 17.5443 25.2957 17.0103C25.6057 16.6996 25.8969 16.3597 25.9532 16.2626C26.0472 16.0781 26.0378 16.0781 25.5587 16.2432C24.7603 16.5345 24.6476 16.4956 25.0421 16.0587C25.3333 15.748 25.6808 15.1848 25.6808 15.0198C25.6808 14.9906 25.5399 15.0392 25.3803 15.1266C25.2112 15.2237 24.8355 15.3693 24.5537 15.4567L24.0464 15.6218L23.5862 15.3013C23.3325 15.1266 22.9756 14.9324 22.7877 14.8741C22.3087 14.7382 21.576 14.7576 21.1439 14.9129C19.9698 15.3499 19.2277 16.4762 19.3122 17.7094Z" fill="white"/>
</svg>
