<svg width="69" height="65" viewBox="0 0 69 65" fill="none" xmlns="http://www.w3.org/2000/svg">
<path d="M60.8193 37.6675C60.5496 28.7757 55.8646 20.7038 48.3415 16.0507C49.0737 7.87911 42.624 0.855469 34.4574 0.855469C26.2993 0.855469 19.8401 7.86969 20.5732 16.0507C13.0501 20.7038 8.36514 28.7757 8.09543 37.6675C0.620805 41.1394 -2.21366 50.2127 1.87364 57.2921C5.93268 64.3227 15.2258 66.4655 21.9752 61.7184C29.7492 65.9007 39.1637 65.9016 46.9394 61.7184C53.6889 66.4657 62.981 64.3239 67.0409 57.2921C71.1203 50.2268 68.3091 41.1472 60.8193 37.6675ZM34.4574 6.2388C39.1763 6.2388 43.0153 10.0778 43.0153 14.7966C43.0153 19.5153 39.1763 23.3544 34.4574 23.3544C29.7385 23.3544 25.8995 19.5155 25.8995 14.7966C25.8996 10.0779 29.7386 6.2388 34.4574 6.2388ZM6.53588 54.6005C4.17098 50.5044 5.57172 45.2755 9.66817 42.9102C13.7665 40.5441 18.9947 41.9482 21.3585 46.0426C23.7177 50.1293 22.3127 55.3734 18.2261 57.733C14.1396 60.0923 8.89513 58.687 6.53588 54.6005ZM25.8234 57.6187C28.4066 53.3987 28.6637 47.929 26.0206 43.351C23.3653 38.7515 18.5096 36.2533 13.5711 36.3797C14.1688 30.3657 17.3129 24.9428 22.2002 21.4342C24.5635 25.7808 29.1716 28.7379 34.4575 28.7379C39.7434 28.7379 44.3515 25.7808 46.7148 21.4342C51.6021 24.9428 54.7462 30.3658 55.3439 36.3797C50.418 36.2536 45.5565 38.7397 42.8944 43.351C40.2513 47.929 40.5082 53.3987 43.0916 57.6187C37.6202 60.0888 31.2984 60.0905 25.8234 57.6187ZM62.379 54.6005C60.0196 58.6869 54.7753 60.0923 50.6888 57.733C46.6022 55.3734 45.197 50.1293 47.5564 46.0426C49.9209 41.947 55.1497 40.5449 59.2467 42.9102C63.3429 45.2752 64.7441 50.504 62.379 54.6005Z" fill="#8748FF"/>
</svg>
