<svg width="64" height="65" viewBox="0 0 64 65" fill="none" xmlns="http://www.w3.org/2000/svg">
<path d="M54.6274 10.228C48.5835 4.18408 40.5474 0.855469 32 0.855469C23.4526 0.855469 15.4165 4.18408 9.37256 10.228C3.32861 16.272 0 24.3081 0 32.8555C0 41.4028 3.32861 49.439 9.37256 55.4829C15.4165 61.5269 23.4526 64.8555 32 64.8555C40.5474 64.8555 48.5835 61.5269 54.6274 55.4829C60.6714 49.439 64 41.4028 64 32.8555C64 24.3081 60.6714 16.272 54.6274 10.228ZM13.8882 54.5176C14.9448 45.4258 22.7617 38.4062 32 38.4062C36.8701 38.4062 41.4497 40.3037 44.8945 43.748C47.8047 46.6587 49.6401 50.459 50.1123 54.5171C45.2051 58.627 38.8867 61.1055 32 61.1055C25.1133 61.1055 18.7954 58.6274 13.8882 54.5176ZM32 34.5439C26.6411 34.5439 22.2808 30.1836 22.2808 24.8247C22.2808 19.4653 26.6411 15.1055 32 15.1055C37.3589 15.1055 41.7192 19.4653 41.7192 24.8247C41.7192 30.1836 37.3589 34.5439 32 34.5439ZM53.3398 51.3472C52.3843 47.4946 50.3916 43.9424 47.5459 41.0967C45.2412 38.792 42.5146 37.063 39.541 35.9795C43.1157 33.5552 45.4692 29.4595 45.4692 24.8247C45.4692 17.3979 39.4268 11.3555 32 11.3555C24.5732 11.3555 18.5308 17.3979 18.5308 24.8247C18.5308 29.4619 20.8862 33.5591 24.4639 35.9829C21.728 36.98 19.1963 38.5215 17.0181 40.5508C13.8638 43.4883 11.6733 47.2339 10.6577 51.3442C6.35645 46.3857 3.75 39.9194 3.75 32.8555C3.75 17.2783 16.4229 4.60547 32 4.60547C47.5771 4.60547 60.25 17.2783 60.25 32.8555C60.25 39.9209 57.6426 46.3887 53.3398 51.3472Z" fill="#8748FF"/>
</svg>
