<svg width="64" height="65" viewBox="0 0 64 65" fill="none" xmlns="http://www.w3.org/2000/svg">
<path d="M32.125 29.293H35.25C36.2855 29.293 37.125 28.4535 37.125 27.418C37.125 26.3825 36.2855 25.543 35.25 25.543H32.125C31.0895 25.543 30.25 26.3825 30.25 27.418C30.25 28.4535 31.0895 29.293 32.125 29.293Z" fill="#8748FF"/>
<path d="M24.125 25.543H21C19.9645 25.543 19.125 26.3825 19.125 27.418C19.125 28.4535 19.9645 29.293 21 29.293H24.125C25.1605 29.293 26 28.4535 26 27.418C26 26.3825 25.1605 25.543 24.125 25.543Z" fill="#8748FF"/>
<path d="M43.25 29.293H46.375C47.4105 29.293 48.25 28.4535 48.25 27.418C48.25 26.3825 47.4105 25.543 46.375 25.543H43.25C42.2145 25.543 41.375 26.3825 41.375 27.418C41.375 28.4535 42.2145 29.293 43.25 29.293Z" fill="#8748FF"/>
<path d="M13 33.9805H9.875C8.8395 33.9805 8 34.82 8 35.8555C8 36.891 8.8395 37.7305 9.875 37.7305H13C14.0355 37.7305 14.875 36.891 14.875 35.8555C14.875 34.82 14.0355 33.9805 13 33.9805Z" fill="#8748FF"/>
<path d="M24.125 33.9805H21C19.9645 33.9805 19.125 34.82 19.125 35.8555C19.125 36.891 19.9645 37.7305 21 37.7305H24.125C25.1605 37.7305 26 36.891 26 35.8555C26 34.82 25.1605 33.9805 24.125 33.9805Z" fill="#8748FF"/>
<path d="M37.125 35.8555C37.125 34.82 36.2855 33.9805 35.25 33.9805H32.125C31.0895 33.9805 30.25 34.82 30.25 35.8555C30.25 36.891 31.0895 37.7305 32.125 37.7305H35.25C36.2855 37.7305 37.125 36.891 37.125 35.8555Z" fill="#8748FF"/>
<path d="M13 42.418H9.875C8.8395 42.418 8 43.2575 8 44.293C8 45.3285 8.8395 46.168 9.875 46.168H13C14.0355 46.168 14.875 45.3285 14.875 44.293C14.875 43.2575 14.0355 42.418 13 42.418Z" fill="#8748FF"/>
<path d="M24.125 42.418H21C19.9645 42.418 19.125 43.2575 19.125 44.293C19.125 45.3285 19.9645 46.168 21 46.168H24.125C25.1605 46.168 26 45.3285 26 44.293C26 43.2575 25.1605 42.418 24.125 42.418Z" fill="#8748FF"/>
<path d="M56.25 35.74V11.4805C56.25 7.68959 53.1659 4.60547 49.375 4.60547H45.75V2.73047C45.75 1.69497 44.9105 0.855469 43.875 0.855469C42.8395 0.855469 42 1.69497 42 2.73047V4.60547H35.25V2.73047C35.25 1.69497 34.4105 0.855469 33.375 0.855469C32.3395 0.855469 31.5 1.69497 31.5 2.73047V4.60547H24.75V2.73047C24.75 1.69497 23.9105 0.855469 22.875 0.855469C21.8395 0.855469 21 1.69497 21 2.73047V4.60547H14.25V2.73047C14.25 1.69497 13.4105 0.855469 12.375 0.855469C11.3395 0.855469 10.5 1.69497 10.5 2.73047V4.60547H6.875C3.08413 4.60547 0 7.68959 0 11.4805V48.9805C0 52.0821 2.52338 54.6055 5.625 54.6055H33.7028C35.8988 60.5811 41.6471 64.8555 48.375 64.8555C56.9906 64.8555 64 57.8461 64 49.2305C64 43.4848 60.8821 38.4543 56.25 35.74ZM3.75 11.4805C3.75 9.75734 5.15188 8.35547 6.875 8.35547H10.5V10.2305C10.5 11.266 11.3395 12.1055 12.375 12.1055C13.4105 12.1055 14.25 11.266 14.25 10.2305V8.35547H21V10.2305C21 11.266 21.8395 12.1055 22.875 12.1055C23.9105 12.1055 24.75 11.266 24.75 10.2305V8.35547H31.5V10.2305C31.5 11.266 32.3395 12.1055 33.375 12.1055C34.4105 12.1055 35.25 11.266 35.25 10.2305V8.35547H42V10.2305C42 11.266 42.8395 12.1055 43.875 12.1055C44.9105 12.1055 45.75 11.266 45.75 10.2305V8.35547H49.375C51.0981 8.35547 52.5 9.75734 52.5 11.4805V17.1055H3.75V11.4805ZM5.625 50.8555C4.59113 50.8555 3.75 50.0143 3.75 48.9805V20.8555H52.5V34.1592C51.1854 33.799 49.8024 33.6055 48.375 33.6055C39.7594 33.6055 32.75 40.6148 32.75 49.2305C32.75 49.7791 32.7788 50.3212 32.8343 50.8555H5.625ZM48.375 61.1055C41.8271 61.1055 36.5 55.7783 36.5 49.2305C36.5 42.6826 41.8271 37.3555 48.375 37.3555C54.9229 37.3555 60.25 42.6826 60.25 49.2305C60.25 55.7783 54.9229 61.1055 48.375 61.1055Z" fill="#8748FF"/>
<path d="M54.625 47.3555H50.25V42.9805C50.25 41.945 49.4105 41.1055 48.375 41.1055C47.3395 41.1055 46.5 41.945 46.5 42.9805V49.2305C46.5 50.266 47.3395 51.1055 48.375 51.1055H54.625C55.6605 51.1055 56.5 50.266 56.5 49.2305C56.5 48.195 55.6605 47.3555 54.625 47.3555Z" fill="#8748FF"/>
</svg>
