<svg width="203" height="55" viewBox="0 0 203 55" fill="none" xmlns="http://www.w3.org/2000/svg">
<path d="M61.1407 34.5022L68.2551 11.9021H73.8182L80.9325 34.5022H77.0277L70.5552 14.229H71.4111L65.0456 34.5022H61.1407ZM65.1258 29.6078V26.0773H76.9742V29.6078H65.1258Z" fill="#232323"/>
<path d="M83.7141 34.5022V17.5721H87.0841V22.8143H87.5387V34.5022H83.7141ZM95.4822 34.5022V26.3447C95.4822 25.8098 95.4555 25.2214 95.3752 24.5795C95.295 23.9376 95.1345 23.2957 94.8671 22.7073C94.5996 22.1189 94.1984 21.6107 93.6635 21.2363C93.1286 20.8619 92.4332 20.6479 91.5238 20.6479C91.0424 20.6479 90.561 20.7281 90.1063 20.8886C89.6249 21.0491 89.197 21.3165 88.8225 21.691C88.4481 22.0654 88.1271 22.6003 87.9132 23.269C87.6725 23.9376 87.5655 24.7935 87.5655 25.8098L85.3188 24.847C85.3188 23.4027 85.5863 22.0922 86.148 20.9153C86.7096 19.7385 87.5387 18.8024 88.6086 18.107C89.7051 17.4117 91.0424 17.064 92.6204 17.064C93.8775 17.064 94.9206 17.2779 95.7229 17.6791C96.5253 18.107 97.1939 18.642 97.6754 19.2839C98.1568 19.9258 98.5045 20.6211 98.7452 21.3433C98.9859 22.0654 99.1196 22.7608 99.1999 23.4294C99.2801 24.0713 99.3068 24.6063 99.3068 25.0342V34.5022H95.4822Z" fill="#232323"/>
<path d="M108.106 34.9837C106.876 34.9837 105.86 34.743 105.004 34.2883C104.148 33.8336 103.506 33.1917 103.078 32.4161C102.65 31.6405 102.436 30.7846 102.436 29.8485C102.436 29.0461 102.57 28.2973 102.837 27.6554C103.105 27.0135 103.533 26.4251 104.094 25.9704C104.656 25.489 105.378 25.1145 106.287 24.7936C106.956 24.5796 107.758 24.3656 108.668 24.2052C109.577 24.0179 110.567 23.8575 111.637 23.7237C112.706 23.5633 113.83 23.4028 115.007 23.2423L113.669 24.0179C113.669 22.8411 113.429 21.9853 112.894 21.4236C112.359 20.8619 111.449 20.5945 110.192 20.5945C109.417 20.5945 108.695 20.7817 107.972 21.1294C107.25 21.4771 106.769 22.0922 106.475 22.9749L103.025 21.905C103.452 20.4608 104.228 19.3107 105.405 18.4548C106.582 17.599 108.16 17.1443 110.166 17.1443C111.663 17.1443 113.001 17.385 114.151 17.8932C115.301 18.3746 116.157 19.177 116.692 20.3003C116.986 20.8887 117.173 21.5038 117.253 22.119C117.307 22.7341 117.36 23.4295 117.36 24.1517V34.5023H114.044V30.8381L114.605 31.4265C113.83 32.6568 112.947 33.5394 111.931 34.1278C110.914 34.6895 109.631 34.9837 108.106 34.9837ZM108.855 31.9614C109.711 31.9614 110.433 31.8009 111.048 31.5067C111.663 31.2125 112.145 30.8381 112.492 30.3834C112.84 29.9555 113.108 29.5276 113.215 29.1531C113.402 28.6717 113.536 28.11 113.562 27.4949C113.589 26.8797 113.589 26.3716 113.589 25.9704L114.739 26.3181C113.589 26.5053 112.626 26.6658 111.797 26.7995C110.968 26.9332 110.273 27.0669 109.684 27.1739C109.096 27.3077 108.588 27.4146 108.133 27.5751C107.705 27.7356 107.331 27.9228 107.01 28.1368C106.715 28.3507 106.475 28.5915 106.314 28.8589C106.154 29.1264 106.074 29.4473 106.074 29.8218C106.074 30.2497 106.18 30.5974 106.394 30.9183C106.608 31.2393 106.903 31.48 107.304 31.6672C107.785 31.8812 108.267 31.9614 108.855 31.9614Z" fill="#232323"/>
<path d="M121.773 34.5021V11.4473H125.544V34.5021H121.773Z" fill="#232323"/>
<path d="M132.472 42.0444L135.735 33.0845L135.788 35.7324L128.406 17.572H132.338L137.58 30.9984H136.564L141.672 17.572H145.443L136.002 42.0444H132.472Z" fill="#232323"/>
<path d="M147.182 20.541V17.5722H159.003V20.541H147.182ZM158.977 34.5023C157.853 34.7162 156.757 34.7965 155.687 34.7697C154.617 34.743 153.654 34.5558 152.798 34.1813C151.942 33.8069 151.301 33.2185 150.873 32.4161C150.498 31.694 150.284 30.9451 150.257 30.1695C150.231 29.3938 150.231 28.538 150.231 27.5751V12.865H154.002V27.3879C154.002 28.0566 154.002 28.6717 154.029 29.1799C154.055 29.688 154.162 30.116 154.35 30.4369C154.724 31.0521 155.339 31.4265 156.142 31.48C156.971 31.5602 157.907 31.5068 158.977 31.3463V34.5023Z" fill="#232323"/>
<path d="M162.962 15.0045V11.5276H166.733V15.0045H162.962ZM162.962 34.5022V17.5721H166.733V34.5022H162.962Z" fill="#232323"/>
<path d="M178.795 34.9836C177.057 34.9836 175.559 34.5824 174.329 33.8068C173.098 33.0311 172.162 31.9613 171.494 30.624C170.852 29.2867 170.504 27.7355 170.504 26.0505C170.504 24.312 170.852 22.7875 171.52 21.4235C172.189 20.0862 173.152 19.0164 174.409 18.2675C175.666 17.4919 177.137 17.1174 178.849 17.1174C180.774 17.1174 182.406 17.5989 183.743 18.5617C185.08 19.5245 185.936 20.8618 186.364 22.5201L182.593 23.5364C182.299 22.627 181.817 21.9049 181.122 21.4235C180.453 20.9153 179.678 20.6746 178.795 20.6746C177.806 20.6746 177.003 20.9153 176.361 21.37C175.719 21.8247 175.265 22.4666 174.944 23.2957C174.65 24.1248 174.489 25.0342 174.489 26.0772C174.489 27.682 174.837 28.9925 175.559 29.9821C176.281 30.9717 177.351 31.4799 178.768 31.4799C179.785 31.4799 180.56 31.2392 181.149 30.7845C181.737 30.3298 182.165 29.6612 182.459 28.8053L186.311 29.6612C185.776 31.3996 184.866 32.7102 183.556 33.6463C182.299 34.5289 180.694 34.9836 178.795 34.9836Z" fill="#232323"/>
<path d="M196.046 34.9836C193.96 34.9836 192.248 34.5021 190.938 33.566C189.627 32.6299 188.825 31.2927 188.557 29.6077L192.409 29.0193C192.596 29.8484 193.051 30.517 193.719 30.9985C194.388 31.4799 195.244 31.7206 196.287 31.7206C197.196 31.7206 197.892 31.5334 198.4 31.1857C198.908 30.838 199.149 30.3298 199.149 29.7147C199.149 29.3402 199.068 29.0193 198.881 28.7786C198.694 28.5379 198.293 28.3239 197.678 28.0832C197.062 27.8692 196.126 27.575 194.843 27.2541C193.425 26.8796 192.302 26.4784 191.446 26.0505C190.617 25.6226 190.002 25.1144 189.654 24.4992C189.279 23.9108 189.092 23.1887 189.092 22.3328C189.092 21.2898 189.36 20.3537 189.921 19.578C190.483 18.8024 191.259 18.1873 192.248 17.7593C193.238 17.3314 194.415 17.1174 195.752 17.1174C197.062 17.1174 198.239 17.3314 199.256 17.7326C200.272 18.1338 201.101 18.7222 201.716 19.4711C202.331 20.2199 202.733 21.1025 202.866 22.1189L199.015 22.8143C198.908 22.0921 198.587 21.5305 198.025 21.1025C197.464 20.6746 196.715 20.4606 195.779 20.4072C194.896 20.3537 194.174 20.4874 193.639 20.8083C193.104 21.1293 192.837 21.584 192.837 22.1456C192.837 22.4666 192.944 22.734 193.158 22.9747C193.372 23.2155 193.826 23.4294 194.495 23.6701C195.164 23.9108 196.153 24.1783 197.464 24.526C198.801 24.8737 199.898 25.2749 200.7 25.7028C201.502 26.1575 202.091 26.6657 202.465 27.3076C202.84 27.9494 203 28.6716 203 29.5542C203 31.2659 202.385 32.6032 201.128 33.566C199.951 34.5021 198.239 34.9836 196.046 34.9836Z" fill="#232323"/>
<path d="M33.3787 45.9492H8.7191C3.90487 45.9492 0 42.0443 0 37.2301V12.5973C0 7.78305 3.90487 3.87817 8.7191 3.87817H33.3787C38.1929 3.87817 42.0978 7.78305 42.0978 12.5973V37.2568C42.0978 42.0443 38.1929 45.9492 33.3787 45.9492Z" fill="#8748FF"/>
<path d="M26.6387 19.9791C26.2108 19.6582 25.7294 19.5245 25.2212 19.5245C24.3654 19.5245 23.4827 19.8187 22.5734 20.5408C21.664 21.2629 20.7012 22.8944 20.193 23.777C20.193 23.777 20.7814 21.9048 20.7814 21.3164C20.7814 20.6478 20.6744 20.3268 20.3 19.9791C19.9256 19.6314 19.4709 19.4442 18.722 19.4175C18.2406 19.4175 17.7057 19.5245 17.4382 19.6582C17.144 19.8187 16.6358 20.2199 16.7428 20.8885C16.8231 21.4769 17.2777 21.3967 17.2777 22.1188C17.2777 22.2793 17.1975 22.6002 17.0905 22.8944C17.0905 22.8944 15.7532 26.1307 15.0578 28.1633C14.8706 28.7517 14.6834 29.2599 14.8706 29.7146C15.2183 30.5972 17.5452 30.7042 18.1871 29.2332C19.0162 27.3075 19.5511 25.3015 20.3 24.1782C21.0489 23.0816 22.0117 21.9583 22.6804 21.7711C23.1083 21.6641 23.5362 21.8246 23.456 22.4665C23.349 23.4561 21.2629 27.0935 21.4768 28.7785C21.6373 30.0355 22.7339 30.303 23.349 30.303C24.3386 30.303 24.82 30.1158 25.7026 29.4471C26.719 28.6982 25.4352 29.4471 25.1142 29.2867C24.7933 29.1262 24.8735 28.5378 25.3015 27.4947C25.3817 27.3342 27.2004 23.0014 27.2806 21.5036C27.3341 20.8083 27.0667 20.2733 26.6387 19.9791Z" fill="#00FF00"/>
<path d="M31.5867 1.36403V7.00738C31.5867 7.75626 30.9715 8.37141 30.2226 8.37141C29.4738 8.37141 28.8586 7.75626 28.8586 7.00738V1.36403C28.8586 0.615152 29.4738 0 30.2226 0C30.9715 0 31.5867 0.615152 31.5867 1.36403Z" fill="#8748FF"/>
<path d="M13.2391 1.36403V7.00738C13.2391 7.75626 12.624 8.37141 11.8751 8.37141C11.1262 8.37141 10.5111 7.75626 10.5111 7.00738V1.36403C10.5111 0.615152 11.1262 0 11.8751 0C12.624 0 13.2391 0.615152 13.2391 1.36403Z" fill="#8748FF"/>
<path d="M52.3681 14.202V35.5985C52.3681 36.6684 51.1378 37.2568 50.3087 36.6149L44.7456 32.0414L36.2672 24.7933L44.7456 17.7859L50.282 13.2391C51.1378 12.5437 52.3681 13.1321 52.3681 14.202Z" fill="#8748FF"/>
<path d="M10.832 10.1633H4.84097V16.1544H10.832V10.1633Z" fill="white"/>
<path d="M24.1514 10.1633H18.1604V16.1544H24.1514V10.1633Z" fill="white"/>
<path d="M37.4707 10.1633H31.4797V16.1544H37.4707V10.1633Z" fill="white"/>
<path d="M10.832 21.343H4.84097V27.3341H10.832V21.343Z" fill="white"/>
<path d="M37.4707 21.343H31.4797V27.3341H37.4707V21.343Z" fill="white"/>
<path d="M10.832 32.4961H4.84097V38.4871H10.832V32.4961Z" fill="white"/>
<path d="M24.1514 32.4961H18.1604V38.4871H24.1514V32.4961Z" fill="white"/>
<path d="M36.9893 54.8555C43.0012 54.8555 47.8748 49.9819 47.8748 43.97C47.8748 37.9581 43.0012 33.0845 36.9893 33.0845C30.9774 33.0845 26.1038 37.9581 26.1038 43.97C26.1038 49.9819 30.9774 54.8555 36.9893 54.8555Z" fill="#8748FF"/>
<path d="M28.5912 39.7441C28.6447 39.6639 28.6714 39.5836 28.7249 39.5034C28.8586 39.2627 28.9924 39.022 29.1528 38.7812C29.2063 38.701 29.2598 38.594 29.34 38.5138C29.447 38.3801 29.5273 38.2463 29.6343 38.1126C29.661 38.0859 29.6877 38.0324 29.7145 38.0056C29.9552 37.7114 30.2227 37.4172 30.5169 37.1498C30.5704 37.0963 30.6238 37.0428 30.6773 36.9893C30.7308 36.9358 30.8111 36.8823 30.8646 36.8288C30.918 36.8021 30.9448 36.7486 30.9983 36.7218C31.1053 36.6416 31.1855 36.5613 31.2925 36.4811C31.3192 36.4544 31.3727 36.4276 31.3995 36.4009C31.3995 36.4009 31.4262 36.4009 31.4262 36.3741C31.4262 36.3741 31.453 36.3741 31.453 36.3474C31.4797 36.3206 31.5332 36.2939 31.5599 36.2671C31.6402 36.2137 31.7204 36.1602 31.8007 36.1067C32.2286 35.8125 32.6833 35.5718 33.1647 35.3578C33.2182 35.331 33.2717 35.3043 33.3252 35.2776C33.6194 35.1438 33.9136 35.0368 34.2345 34.9566C34.3415 34.9299 34.4485 34.9031 34.5555 34.8764C34.9299 34.7694 35.3043 34.6891 35.7055 34.6357C35.7858 34.6357 35.8393 34.6089 35.9195 34.6089C35.973 34.6089 36.0265 34.6089 36.1067 34.5822C36.1602 34.5822 36.2137 34.5822 36.2404 34.5822C36.2672 34.5822 36.3207 34.5822 36.3474 34.5822C36.3742 34.5822 36.4009 34.5822 36.4009 34.5822C36.5881 34.5822 36.8021 34.5554 36.9893 34.5554C37.0161 34.5554 37.0428 34.5554 37.0696 34.5554C37.0696 34.5554 37.0696 34.5554 37.0963 34.5554H37.1231C42.2315 34.6357 46.3503 38.7812 46.3771 43.8897V43.9164C46.3771 49.1051 42.178 53.3042 36.9893 53.3042C36.7754 53.3042 36.5881 53.3042 36.4009 53.2774C36.3742 53.2774 36.3474 53.2774 36.3474 53.2774C36.3207 53.2774 36.2672 53.2774 36.2404 53.2774C36.187 53.2774 36.1335 53.2774 36.1067 53.2774C36.0532 53.2774 35.9997 53.2774 35.9195 53.2507C35.8393 53.2507 35.7858 53.2239 35.7055 53.2239C35.3043 53.1704 34.9299 53.0902 34.5555 52.9832C34.4485 52.9565 34.3415 52.9297 34.2345 52.903C33.9403 52.796 33.6194 52.689 33.3252 52.582C33.2717 52.5553 33.2182 52.5285 33.1647 52.5018C32.6833 52.2878 32.2286 52.0471 31.8007 51.7529C31.7204 51.6994 31.6402 51.6459 31.5599 51.5924C31.4797 51.539 31.3727 51.4587 31.2925 51.4052C31.1855 51.325 31.1053 51.2448 30.9983 51.1645C30.9448 51.1378 30.918 51.0843 30.8646 51.0575C30.8111 51.004 30.7308 50.9505 30.6773 50.8971C30.6238 50.8436 30.5704 50.7901 30.5169 50.7366C30.2227 50.4691 29.9819 50.1749 29.7145 49.8807C29.6877 49.854 29.661 49.8005 29.6343 49.7737C29.5273 49.64 29.447 49.5063 29.34 49.3726C29.2866 49.2923 29.2063 49.2121 29.1528 49.1051C28.9924 48.8644 28.8586 48.6237 28.7249 48.383C28.6714 48.3027 28.6447 48.2225 28.5912 48.1422C27.9493 46.8852 27.6016 45.4409 27.6016 43.9432C27.6016 42.4454 27.976 41.0279 28.5912 39.7441ZM36.2939 51.9401V51.0575C36.2939 51.004 36.2939 50.9505 36.3207 50.9238C36.3207 50.8971 36.3207 50.8971 36.3207 50.8703C36.3207 50.8436 36.3474 50.8168 36.3474 50.8168C36.3474 50.7901 36.3742 50.7633 36.3742 50.7633C36.4009 50.7366 36.4277 50.6831 36.4544 50.6563C36.4812 50.6296 36.4812 50.6296 36.5079 50.6029C36.5614 50.5494 36.6149 50.5226 36.6684 50.4959C36.6684 50.4959 36.6951 50.4959 36.6951 50.4691C36.6951 50.4691 36.7219 50.4691 36.7219 50.4424C36.7486 50.4424 36.7754 50.4156 36.8289 50.4156H36.8556C36.8823 50.4156 36.8823 50.4156 36.9091 50.4156C36.9358 50.4156 36.9358 50.4156 36.9626 50.4156H36.9893C37.3638 50.4156 37.6847 50.7366 37.6847 51.111V51.9936C41.5628 51.6727 44.6653 48.5434 44.9596 44.6653H44.2107C43.8362 44.6653 43.5153 44.3444 43.5153 43.9699C43.5153 43.5955 43.8362 43.2745 44.2107 43.2745H44.9596C44.6119 39.4499 41.5896 36.4009 37.765 36.0264V36.7486C37.765 37.123 37.444 37.444 37.0696 37.444C37.0428 37.444 37.0161 37.444 36.9626 37.444C36.8556 37.4172 36.7754 37.3905 36.6951 37.337L36.6684 37.3102L36.6416 37.2835C36.6149 37.2835 36.6149 37.2567 36.5881 37.23L36.5614 37.2032C36.5614 37.2032 36.5614 37.1765 36.5347 37.1765C36.5347 37.1765 36.5346 37.1498 36.5079 37.1498C36.5079 37.1498 36.5079 37.123 36.4812 37.123C36.4544 37.0963 36.4544 37.0695 36.4277 37.0428C36.4277 37.0428 36.4277 37.016 36.4009 37.016V36.9893V36.9625C36.4009 36.9358 36.4009 36.909 36.3742 36.909V36.8823V36.8556V36.8288V36.8021V36.0799C32.496 36.3741 29.3935 39.3964 29.0191 43.2478H29.8482C30.2227 43.2478 30.5436 43.5687 30.5436 43.9432C30.5436 44.3176 30.2227 44.6386 29.8482 44.6386H28.9924C29.2866 48.4364 32.3891 51.5924 36.2939 51.9401Z" fill="white"/>
<path d="M34.0205 43.7826C34.0205 43.8094 34.0473 43.8361 34.0473 43.8629C34.074 43.9163 34.074 43.9431 34.1008 43.9966C34.1275 44.0501 34.1543 44.1036 34.2078 44.1303L36.5079 46.4304C36.5346 46.4572 36.5346 46.4572 36.5614 46.4839C36.5881 46.5107 36.6149 46.5374 36.6416 46.5374C36.6416 46.5374 36.6684 46.5374 36.6684 46.5642C36.6951 46.5642 36.6951 46.5909 36.7219 46.5909H36.7486H36.7754C36.8021 46.5909 36.8288 46.5909 36.8288 46.6177H36.8556C36.8823 46.6177 36.9091 46.6177 36.9091 46.6177H36.9358C37.123 46.6177 37.2835 46.5374 37.4172 46.4037L41.4291 42.3918C41.6966 42.1244 41.6966 41.6965 41.4291 41.4023C41.1616 41.1348 40.7337 41.1348 40.4395 41.4023L36.9091 44.9327L35.0904 43.114C34.8229 42.8465 34.395 42.8465 34.1008 43.114C34.0473 43.1675 34.0205 43.1942 33.9938 43.2477C33.967 43.3012 33.9403 43.3279 33.9403 43.3814C33.9403 43.4082 33.9136 43.4349 33.9136 43.4617C33.9938 43.6221 33.9938 43.7024 34.0205 43.7826Z" fill="white"/>
</svg>
